<svg width="24" height="24" viewBox="0 0 24 24" fill="none" xmlns="http://www.w3.org/2000/svg">
<g clip-path="url(#clip0_30_3357)">
<mask id="mask0_30_3357" style="mask-type:luminance" maskUnits="userSpaceOnUse" x="0" y="0" width="24" height="24">
<path d="M24 0H0V24H24V0Z" fill="white"/>
</mask>
<g mask="url(#mask0_30_3357)">
<path d="M20.8602 8.36985L13.9302 2.82985C12.8602 1.96985 11.1302 1.96985 10.0702 2.81985L3.14026 8.36985C2.36027 8.98985 1.86027 10.2998 2.03027 11.2798L3.36027 19.2398C3.60027 20.6598 4.96027 21.8098 6.40027 21.8098H17.6002C19.0302 21.8098 20.4002 20.6498 20.6402 19.2398L21.9702 11.2798C22.1302 10.2998 21.6302 8.98985 20.8602 8.36985ZM12.0002 15.4998C10.6202 15.4998 9.50027 14.3798 9.50027 12.9998C9.50027 11.6198 10.6202 10.4998 12.0002 10.4998C13.3802 10.4998 14.5002 11.6198 14.5002 12.9998C14.5002 14.3798 13.3802 15.4998 12.0002 15.4998Z" fill="black"/>
</g>
</g>
<defs>
<clipPath id="clip0_30_3357">
<rect width="24" height="24" fill="white"/>
</clipPath>
</defs>
</svg>
