<svg width="512" height="512" viewBox="0 0 512 512" fill="none" xmlns="http://www.w3.org/2000/svg">
<path d="M38.9199 201.72L40.8199 209.42C41.2999 211.16 40.7199 213.02 39.6199 214.58C30.7199 227.14 26.5799 243.48 24.6799 256.08C37.8999 230.5 59.5199 218.46 95.6199 218.46H197.26C179.46 215.12 160.38 208.88 153.44 196.22C169.46 186.44 204.08 176.54 240.42 176.54C278.02 176.54 305.98 191.42 329.68 205.32C312.36 211.36 269.76 212.74 218.98 211.88C247.84 218.14 283.82 219.34 324.32 219.1C373.34 218.82 430.24 217.22 459.62 253.76L467.5 258.62H496.22C496.94 245.78 489.42 234.9 476.7 228.28C446.48 210.98 404.32 206.02 357.82 202.12C352.12 201.62 346.08 196.72 339.38 193.1C308.94 176.24 281.62 161.32 237.98 161.32C189.54 161.32 157.58 173.22 120.9 187.02C97.4199 196.5 77.1199 200.44 58.5799 200.02C52.7599 199.86 47.8399 199.44 42.7999 198.64C40.3999 198.22 38.2999 199.42 38.9199 201.72Z" fill="white"/>
<path d="M139.1 278.8H82.42C73.08 278.8 70.34 274.46 70.34 270.54C70.34 264.84 74.62 259.78 84.7 259.78H168.9L196.08 229.32H94.24C55.82 229.32 32.52 248.42 32.52 274.38C32.52 293.7 47.88 302.46 72.44 302.46H133.66C145.06 302.46 145.86 305.5 145.86 309.42C145.86 314.82 141.86 320.96 129.64 320.96H40.02L14.24 350.52H122.24C165.44 350.52 184.52 331.98 184.52 304.88C184.52 287.48 172.66 278.8 139.1 278.8Z" fill="white"/>
<path d="M233.6 320.4L253.46 229.06H217.58L189.18 350.26H298.62L327.84 320.4H233.6Z" fill="white"/>
<path d="M386 278.8L390.34 259.78H454.58C441.98 238.98 412.94 229.5 359.46 229.5L331.66 350.52H369.38L378.56 305.5H448.16L475.34 278.7L386 278.8Z" fill="white"/>
<path opacity="0.2" d="M180.78 292H40.12C47.44 299.9 59.96 302.46 72.44 302.46H133.66C145.06 302.46 145.86 305.5 145.86 309.42C145.86 311.12 145.44 312.98 144.34 314.68H182.98C184.22 310.2 184.52 306.92 184.52 303.86C184.52 298.8 182.82 295.28 180.78 292Z" fill="white"/>
<path opacity="0.2" d="M206.4 290.2H239.04L253.5 229H217.62L206.4 290.2Z" fill="white"/>
<path opacity="0.2" d="M344.4 290.2H452.54L475.5 278.58L386.16 278.68L389.4 260.36H453.7C441.44 240.98 413.64 230.12 360.92 229.38L344.4 290.2Z" fill="white"/>
</svg>
